<?xml version="1.0" encoding="UTF-8"?>
<svg id="Layer_2" data-name="Layer 2" xmlns="http://www.w3.org/2000/svg" viewBox="0 0 404.15 127.29">
  <defs>
    <style>
      .cls-1 {
        fill: #00a7e1;
      }
    </style>
  </defs>
  <g id="Layer_1-2" data-name="Layer 1">
    <path class="cls-1" d="M121.46,30.69c-16.97-7.11-36.79,1.59-44.2,19.25-7.51,17.91.38,37.69,17.94,45.05,14.1,5.91,27.41,2.83,37.61-8.22,0,0,3.23-3.29,6.41-9.92h-11.33c-1.47,2.15-5.52,5.54-5.52,5.54-6.89,5.48-14.54,6.73-23.19,3.11-7-2.93-12.33-9.21-13.64-17.02l55.15-.16c3.11-17.39-5.95-32.05-19.23-37.62ZM86,58.35c.33-1.4.75-2.75,1.4-4.3,5.87-14,20.36-17.95,30.09-13.87,6.87,2.88,11.9,9.85,12.9,18.1l-44.38.07ZM33.44,27.79c-9.13,0-17.49,4.37-22.88,11.18V0H0v62.38c0,19.67,14.54,34.86,33.33,34.86s33.17-14.91,33.17-34.86-14.66-34.59-33.06-34.59ZM33.33,87.21c-12.1,0-22.39-11.08-22.39-24.83s10.17-24.57,22.39-24.57,22.25,10.81,22.25,24.57-10.04,24.83-22.25,24.83ZM178.71,27.79c-15.81,0-27.64,10.92-27.64,27.64v40.25h10.8v-40.64c0-9.91,6.56-17.11,16.85-17.11s16.73,7.2,16.73,17.11v40.64h10.8v-40.25c0-16.73-11.71-27.64-27.53-27.64ZM397.88,28.18c-3.36,0-6.27,2.54-6.27,6.17s2.91,6.17,6.27,6.17,6.27-2.54,6.27-6.17-2.91-6.17-6.27-6.17ZM397.88,39.42c-2.74,0-4.84-2.16-4.84-5.08s2.1-5.08,4.84-5.08,4.84,2.18,4.84,5.08-2.1,5.08-4.84,5.08ZM400.71,32.85c0-1.45-.85-2.03-2.56-2.03h-2.67v7.05h1.16v-3.05h1.12l1.82,3.05h1.26l-1.98-3.1c1.07-.12,1.84-.65,1.84-1.93ZM396.64,33.87v-2.1h1.4c1.01,0,1.52.31,1.52.99,0,.8-.44,1.11-1.45,1.11h-1.47ZM357.93,27.79c-18.78,0-33.32,15.69-33.32,34.98s14.54,34.59,33.32,34.59,33.32-15.56,33.32-34.59-14.41-34.98-33.32-34.98ZM357.93,86.81c-12.22,0-22.25-10.8-22.25-24.04s10.03-24.56,22.25-24.56,22.38,11.05,22.38,24.56-10.03,24.04-22.38,24.04ZM283.85,26.96c-18.73,0-33.96,16.1-33.96,35.9s15.24,35.41,33.96,35.41c9.12,0,17.43-3.44,23.57-9.71v3.55c0,15.21-8.89,24.65-23.2,24.65-10.54,0-18.35-5.08-21.44-13.93l-.71-2.03h-10.9l1.13,3.87c4.15,14.16,16.08,22.61,31.92,22.61,20.17,0,33.72-14.14,33.72-35.18v-29.25c0-20.47-14.65-35.9-34.09-35.9ZM283.85,87.77c-12.93,0-23.45-11.17-23.45-24.9s10.52-25.26,23.45-25.26c13.88,0,23.57,10.39,23.57,25.26s-9.91,24.9-23.57,24.9ZM228.42,71.52v-31.65h15.04v-10.41h-15.04v-14.15h-10.81v56.21c0,16.84,10.67,25.97,26.1,24.17v-10.03c-8.22.53-15.29-2.44-15.29-14.14Z"/>
  </g>
</svg>